<svg width="530" height="636" viewBox="0 0 530 636" fill="none" xmlns="http://www.w3.org/2000/svg">
<path d="M0 530H53V583H0V530Z" fill="#FF691B"/>
<path d="M0 477H53V530H0V477Z" fill="#FF691B"/>
<path d="M0 424H53V477H0V424Z" fill="#FF691B"/>
<path d="M0 371H53V424H0V371Z" fill="#FF691B"/>
<path d="M0 318H53V371H0V318Z" fill="#FF691B"/>
<path d="M0 265H53V318H0V265Z" fill="#FF691B"/>
<path d="M0 212H53V265H0V212Z" fill="#FF691B"/>
<path d="M53 583H106V636H53V583Z" fill="#FF691B"/>
<path d="M0 583H53V636H0V583Z" fill="#FF691B"/>
<path d="M477 583H530V636H477V583Z" fill="#FF691B"/>
<path d="M106 583H159V636H106V583Z" fill="#FF691B"/>
<path d="M159 583H212V636H159V583Z" fill="#FF691B"/>
<path d="M212 583H265V636H212V583Z" fill="#FF691B"/>
<path d="M265 583H318V636H265V583Z" fill="#FF691B"/>
<path d="M133 451H186V504H133V451Z" fill="#FF691B"/>
<path d="M186 398H239V451H186V398Z" fill="#FF691B"/>
<path d="M239 398H292V451H239V398Z" fill="#FF691B"/>
<path d="M292 398H345V451H292V398Z" fill="#FF691B"/>
<path d="M345 451H398V504H345V451Z" fill="#FF691B"/>
<path d="M318 583H371V636H318V583Z" fill="#FF691B"/>
<path d="M371 583H424V636H371V583Z" fill="#FF691B"/>
<path d="M424 583H477V636H424V583Z" fill="#FF691B"/>
<path d="M477 477H530V530H477V477Z" fill="#FF691B"/>
<path d="M477 530H530V583H477V530Z" fill="#FF691B"/>
<path d="M477 424H530V477H477V424Z" fill="#FF691B"/>
<path d="M477 371H530V424H477V371Z" fill="#FF691B"/>
<path d="M477 318H530V371H477V318Z" fill="#FF691B"/>
<path d="M477 265H530V318H477V265Z" fill="#FF691B"/>
<path d="M477 212H530V265H477V212Z" fill="#FF691B"/>
<path d="M477 159H530V212H477V159Z" fill="#FF691B"/>
<path d="M371 53H424V106H371V53Z" fill="#FF691B"/>
<path d="M318 0H371V53H318V0Z" fill="#FF691B"/>
<path d="M265 0H318V53H265V0Z" fill="#FF691B"/>
<path d="M212 0H265V53H212V0Z" fill="#FF691B"/>
<path d="M159 0H212V53H159V0Z" fill="#FF691B"/>
<path d="M106 0H159V53H106V0Z" fill="#FF691B"/>
<path d="M53 0H106V53H53V0Z" fill="#FF691B"/>
<path d="M265 53H318V106H265V53Z" fill="#FF691B"/>
<path d="M265 106H318V159H265V106Z" fill="#FF691B"/>
<path d="M265 159H318V212H265V159Z" fill="#FF691B"/>
<path d="M265 212H318V265H265V212Z" fill="#FF691B"/>
<path d="M318 212H371V265H318V212Z" fill="#FF691B"/>
<path d="M371 212H424V265H371V212Z" fill="#FF691B"/>
<path d="M424 212H477V265H424V212Z" fill="#FF691B"/>
<path d="M0 0H53V53H0V0Z" fill="#FF691B"/>
<path d="M0 53H53V106H0V53Z" fill="#FF691B"/>
<path d="M0 106H53V159H0V106Z" fill="#FF691B"/>
<path d="M0 159H53V212H0V159Z" fill="#FF691B"/>
<path d="M132 212H185V265H132V212Z" fill="#FF691B"/>
<path d="M132 159H185V212H132V159Z" fill="#FF691B"/>
<path d="M424 106H477V159H424V106Z" fill="#FF691B"/>
</svg>

