<svg width="371" height="371" viewBox="0 0 371 371" fill="none" xmlns="http://www.w3.org/2000/svg" shape-rendering="crispEdges">
<path d="M106 318H159V371H106V318Z" fill="#FF691B"/>
<path d="M159 265H212V318H159V265Z" fill="#FF691B"/>
<path d="M265 265H318V318H265V265Z" fill="#FF691B"/>
<path d="M212 265H265V318H212V265Z" fill="#FF691B"/>
<path d="M318 159H371V212H318V159Z" fill="#FF691B"/>
<path d="M318 106H371V159H318V106Z" fill="#FF691B"/>
<path d="M318 53H371V106H318V53Z" fill="#FF691B"/>
<path d="M0 53H53V106H0V53Z" fill="#FF691B"/>
<path d="M265 0H318V53H265V0Z" fill="#FF691B"/>
<path d="M212 0H265V53H212V0Z" fill="#FF691B"/>
<path d="M159 0H212V53H159V0Z" fill="#FF691B"/>
<path d="M106 0H159V53H106V0Z" fill="#FF691B"/>
<path d="M0 106H53V159H0V106Z" fill="#FF691B"/>
<path d="M53 0H106V53H53V0Z" fill="#FF691B"/>
<path d="M0 159H53V212H0V159Z" fill="#FF691B"/>
<path d="M0 212H53V265H0V212Z" fill="#FF691B"/>
<path d="M318 212H371V265H318V212Z" fill="#FF691B"/>
<path d="M53 265H106V318H53V265Z" fill="#FF691B"/>
</svg>

