<svg width="371" height="371" viewBox="0 0 371 371" fill="none" xmlns="http://www.w3.org/2000/svg" shape-rendering="crispEdges">
<path d="M159 318V371H106V318H159Z" fill="#FF691B"/>
<path d="M212 318V371H159V318H212Z" fill="#FF691B"/>
<path d="M265 318V371H212V318H265Z" fill="#FF691B"/>
<path d="M318 318V371H265V318H318Z" fill="#FF691B"/>
<path d="M371 265V318H318V265H371Z" fill="#FF691B"/>
<path d="M371 212V265H318V212H371Z" fill="#FF691B"/>
<path d="M318 159V212H265V159H318Z" fill="#FF691B"/>
<path d="M265 159V212H212V159H265Z" fill="#FF691B"/>
<path d="M212 159V212H159V159H212Z" fill="#FF691B"/>
<path d="M159 159V212H106V159H159Z" fill="#FF691B"/>
<path d="M132 238V291H79V238H132Z" fill="#FF691B"/>
<path d="M106 159V212H53L53 159H106Z" fill="#FF691B"/>
<path d="M53 212V265H0L2.3167e-06 212H53Z" fill="#FF691B"/>
<path d="M53 265V318H0V265H53Z" fill="#FF691B"/>
<path d="M106 318V371H53V318H106Z" fill="#FF691B"/>
<path d="M371 106V159H318V106H371Z" fill="#FF691B"/>
<path d="M371 53V106H318V53L371 53Z" fill="#FF691B"/>
<path d="M318 2.3167e-06V53H265V0L318 2.3167e-06Z" fill="#FF691B"/>
<path d="M265 0V53H212V0H265Z" fill="#FF691B"/>
<path d="M212 0V53H159V0H212Z" fill="#FF691B"/>
<path d="M159 0V53H106V0H159Z" fill="#FF691B"/>
<path d="M132 79V132H79V79H132Z" fill="#FF691B"/>
<path d="M106 0V53H53L53 0H106Z" fill="#FF691B"/>
<path d="M53 53V106H0L2.3167e-06 53H53Z" fill="#FF691B"/>
<path d="M53 106L53 159H0V106H53Z" fill="#FF691B"/>
</svg>

