<svg width="1200" height="630" viewBox="0 0 1200 630" fill="none" xmlns="http://www.w3.org/2000/svg">
<path d="M0 0H1200V630H0V0Z" fill="#FFECE2"/>
<path d="M244 239.339C244 230.315 251.312 223 260.333 223H410.594C419.615 223 426.927 230.315 426.927 239.339V389.661C426.927 398.685 419.615 406 410.594 406H260.333C251.312 406 244 398.685 244 389.661V239.339Z" fill="url(#paint0_linear_20_12)"/>
<path d="M290.385 322.251C290.385 315.032 296.235 309.18 303.451 309.18H367.476C374.692 309.18 380.542 315.032 380.542 322.251V365.387C380.542 372.606 374.692 378.458 367.476 378.458H303.451C296.235 378.458 290.385 372.606 290.385 365.387V322.251Z" fill="white"/>
<path d="M326.317 261.234C326.317 253.473 332.606 247.182 340.363 247.182C348.121 247.182 354.41 253.473 354.41 261.234V301.429H326.317V261.234Z" fill="white"/>
<path d="M290.385 272.906C290.385 265.146 296.674 258.855 304.431 258.855C312.189 258.855 318.477 265.146 318.477 272.906V325.519H290.385V272.906Z" fill="white"/>
<path d="M489.204 324.218V262.426H512.367C517.112 262.426 521.093 263.25 524.31 264.9C527.548 266.549 529.99 268.862 531.639 271.839C533.308 274.796 534.143 278.246 534.143 282.188C534.143 286.151 533.298 289.59 531.609 292.507C529.94 295.404 527.477 297.646 524.22 299.235C520.963 300.804 516.961 301.589 512.216 301.589H495.719V292.296H510.708C513.483 292.296 515.755 291.914 517.524 291.149C519.294 290.365 520.601 289.228 521.445 287.74C522.31 286.231 522.742 284.381 522.742 282.188C522.742 279.996 522.31 278.125 521.445 276.576C520.581 275.007 519.264 273.821 517.494 273.016C515.725 272.191 513.443 271.779 510.648 271.779H500.394V324.218H489.204ZM521.113 296.218L536.405 324.218H523.918L508.899 296.218H521.113Z" fill="black"/>
<path d="M557.29 325.153C554.355 325.153 551.711 324.63 549.358 323.584C547.026 322.518 545.176 320.949 543.809 318.877C542.462 316.806 541.788 314.251 541.788 311.214C541.788 308.599 542.271 306.436 543.236 304.727C544.201 303.017 545.518 301.649 547.187 300.623C548.855 299.598 550.736 298.823 552.827 298.3C554.938 297.757 557.119 297.365 559.371 297.123C562.086 296.842 564.287 296.59 565.976 296.369C567.665 296.128 568.892 295.766 569.656 295.283C570.44 294.78 570.832 294.006 570.832 292.96V292.779C570.832 290.506 570.159 288.746 568.811 287.499C567.464 286.251 565.524 285.628 562.99 285.628C560.316 285.628 558.195 286.211 556.627 287.378C555.078 288.545 554.033 289.922 553.49 291.511L543.296 290.063C544.1 287.247 545.427 284.894 547.277 283.003C549.127 281.092 551.389 279.664 554.063 278.719C556.737 277.753 559.693 277.27 562.93 277.27C565.162 277.27 567.384 277.532 569.596 278.055C571.807 278.578 573.828 279.443 575.658 280.65C577.487 281.836 578.955 283.456 580.061 285.507C581.187 287.559 581.75 290.124 581.75 293.201V324.218H571.254V317.852H570.892C570.229 319.139 569.294 320.346 568.088 321.472C566.901 322.579 565.403 323.474 563.594 324.158C561.804 324.821 559.703 325.153 557.29 325.153ZM560.125 317.127C562.317 317.127 564.217 316.695 565.826 315.83C567.434 314.945 568.671 313.778 569.535 312.33C570.42 310.882 570.862 309.303 570.862 307.593V302.132C570.52 302.414 569.937 302.675 569.113 302.916C568.309 303.158 567.404 303.369 566.399 303.55C565.393 303.731 564.398 303.892 563.413 304.033C562.427 304.174 561.573 304.294 560.849 304.395C559.22 304.616 557.763 304.978 556.476 305.481C555.189 305.984 554.174 306.688 553.43 307.593C552.686 308.478 552.314 309.625 552.314 311.033C552.314 313.044 553.048 314.563 554.516 315.589C555.983 316.615 557.853 317.127 560.125 317.127Z" fill="black"/>
<path d="M593.211 324.218V262.426H604.129V285.537H604.581C605.144 284.411 605.938 283.214 606.964 281.947C607.989 280.66 609.376 279.563 611.126 278.658C612.875 277.733 615.107 277.27 617.821 277.27C621.4 277.27 624.627 278.185 627.503 280.016C630.398 281.826 632.69 284.512 634.379 288.072C636.088 291.612 636.943 295.957 636.943 301.106C636.943 306.195 636.108 310.52 634.439 314.08C632.771 317.64 630.499 320.356 627.623 322.227C624.748 324.097 621.491 325.033 617.851 325.033C615.197 325.033 612.996 324.59 611.246 323.705C609.497 322.82 608.09 321.754 607.024 320.507C605.979 319.24 605.164 318.043 604.581 316.916H603.948V324.218H593.211ZM603.918 301.046C603.918 304.043 604.34 306.668 605.184 308.921C606.049 311.173 607.285 312.934 608.894 314.201C610.523 315.448 612.493 316.071 614.805 316.071C617.218 316.071 619.239 315.428 620.867 314.14C622.496 312.833 623.723 311.053 624.547 308.8C625.391 306.527 625.814 303.942 625.814 301.046C625.814 298.169 625.402 295.615 624.577 293.382C623.753 291.149 622.526 289.399 620.898 288.132C619.269 286.865 617.238 286.231 614.805 286.231C612.473 286.231 610.492 286.845 608.864 288.072C607.235 289.299 605.999 291.019 605.154 293.231C604.33 295.444 603.918 298.049 603.918 301.046Z" fill="black"/>
<path d="M646.707 324.218V262.426H657.625V285.537H658.077C658.64 284.411 659.435 283.214 660.46 281.947C661.485 280.66 662.873 279.563 664.622 278.658C666.371 277.733 668.603 277.27 671.318 277.27C674.896 277.27 678.124 278.185 680.999 280.016C683.894 281.826 686.186 284.512 687.875 288.072C689.584 291.612 690.439 295.957 690.439 301.106C690.439 306.195 689.604 310.52 687.936 314.08C686.267 317.64 683.995 320.356 681.12 322.227C678.244 324.097 674.987 325.033 671.348 325.033C668.694 325.033 666.492 324.59 664.743 323.705C662.993 322.82 661.586 321.754 660.52 320.507C659.475 319.24 658.66 318.043 658.077 316.916H657.444V324.218H646.707ZM657.414 301.046C657.414 304.043 657.836 306.668 658.681 308.921C659.545 311.173 660.782 312.934 662.39 314.201C664.019 315.448 665.989 316.071 668.302 316.071C670.714 316.071 672.735 315.428 674.364 314.14C675.992 312.833 677.219 311.053 678.043 308.8C678.888 306.527 679.31 303.942 679.31 301.046C679.31 298.169 678.898 295.615 678.073 293.382C677.249 291.149 676.022 289.399 674.394 288.132C672.765 286.865 670.734 286.231 668.302 286.231C665.969 286.231 663.989 286.845 662.36 288.072C660.731 289.299 659.495 291.019 658.65 293.231C657.826 295.444 657.414 298.049 657.414 301.046Z" fill="black"/>
<path d="M699.721 324.218V277.874H710.639V324.218H699.721ZM705.21 271.296C703.481 271.296 701.993 270.723 700.746 269.576C699.5 268.41 698.876 267.012 698.876 265.383C698.876 263.733 699.5 262.335 700.746 261.189C701.993 260.022 703.481 259.439 705.21 259.439C706.959 259.439 708.447 260.022 709.673 261.189C710.92 262.335 711.543 263.733 711.543 265.383C711.543 267.012 710.92 268.41 709.673 269.576C708.447 270.723 706.959 271.296 705.21 271.296Z" fill="black"/>
<path d="M744.998 277.874V286.322H718.367V277.874H744.998ZM724.942 266.77H735.86V310.278C735.86 311.747 736.081 312.873 736.523 313.658C736.986 314.422 737.589 314.945 738.333 315.227C739.077 315.508 739.901 315.649 740.806 315.649C741.49 315.649 742.113 315.599 742.676 315.498C743.259 315.398 743.701 315.307 744.003 315.227L745.843 323.765C745.26 323.966 744.425 324.188 743.339 324.429C742.274 324.67 740.967 324.811 739.419 324.851C736.684 324.932 734.221 324.52 732.03 323.614C729.838 322.689 728.099 321.261 726.812 319.33C725.545 317.399 724.922 314.985 724.942 312.089V266.77Z" fill="black"/>
<path d="M755.607 324.218V262.426H766.796V288.585H795.418V262.426H806.638V324.218H795.418V297.968H766.796V324.218H755.607Z" fill="black"/>
<path d="M841.819 303.46H851.953L857.955 311.244L862.238 316.313L872.522 329.528H861.665L854.667 320.658L851.682 316.433L841.819 303.46ZM874 293.322C874 299.98 872.753 305.682 870.26 310.429C867.787 315.156 864.409 318.777 860.126 321.291C855.864 323.806 851.028 325.063 845.619 325.063C840.211 325.063 835.365 323.806 831.082 321.291C826.82 318.757 823.442 315.126 820.949 310.399C818.475 305.652 817.239 299.96 817.239 293.322C817.239 286.664 818.475 280.971 820.949 276.244C823.442 271.497 826.82 267.867 831.082 265.352C835.365 262.838 840.211 261.581 845.619 261.581C851.028 261.581 855.864 262.838 860.126 265.352C864.409 267.867 867.787 271.497 870.26 276.244C872.753 280.971 874 286.664 874 293.322ZM862.75 293.322C862.75 288.635 862.016 284.683 860.549 281.464C859.101 278.226 857.09 275.782 854.517 274.132C851.943 272.463 848.977 271.628 845.619 271.628C842.262 271.628 839.296 272.463 836.722 274.132C834.149 275.782 832.128 278.226 830.66 281.464C829.212 284.683 828.489 288.635 828.489 293.322C828.489 298.008 829.212 301.971 830.66 305.21C832.128 308.428 834.149 310.872 836.722 312.541C839.296 314.191 842.262 315.015 845.619 315.015C848.977 315.015 851.943 314.191 854.517 312.541C857.09 310.872 859.101 308.428 860.549 305.21C862.016 301.971 862.75 298.008 862.75 293.322Z" fill="black"/>
<path d="M326.317 343.584C326.317 335.823 332.606 329.532 340.363 329.532C348.121 329.532 354.41 335.823 354.41 343.584C354.41 351.345 348.121 357.636 340.363 357.636C332.606 357.636 326.317 351.345 326.317 343.584Z" fill="#E13A1C"/>
<path d="M489.955 357.196V354.545H503.881V357.196H498.486V372H495.349V357.196H489.955Z" fill="black"/>
<path d="M509.514 364.33V372H506.429V354.545H509.446V361.134H509.599C509.906 360.395 510.381 359.812 511.023 359.386C511.67 358.955 512.494 358.739 513.494 358.739C514.403 358.739 515.196 358.929 515.872 359.31C516.548 359.69 517.071 360.247 517.44 360.98C517.815 361.713 518.003 362.608 518.003 363.665V372H514.918V364.142C514.918 363.261 514.69 362.577 514.236 362.088C513.787 361.594 513.156 361.347 512.344 361.347C511.798 361.347 511.31 361.466 510.878 361.705C510.452 361.938 510.116 362.276 509.872 362.719C509.634 363.162 509.514 363.699 509.514 364.33Z" fill="black"/>
<path d="M526.943 372.256C525.631 372.256 524.497 371.983 523.543 371.438C522.594 370.886 521.864 370.108 521.352 369.102C520.841 368.091 520.585 366.901 520.585 365.531C520.585 364.185 520.841 363.003 521.352 361.986C521.869 360.963 522.591 360.168 523.517 359.599C524.443 359.026 525.531 358.739 526.781 358.739C527.588 358.739 528.349 358.869 529.065 359.131C529.787 359.386 530.423 359.784 530.974 360.324C531.531 360.864 531.969 361.551 532.287 362.386C532.605 363.216 532.764 364.205 532.764 365.352V366.298H522.034V364.219H529.807C529.801 363.628 529.673 363.102 529.423 362.642C529.173 362.176 528.824 361.81 528.375 361.543C527.932 361.276 527.415 361.142 526.824 361.142C526.193 361.142 525.639 361.295 525.162 361.602C524.685 361.903 524.312 362.301 524.045 362.795C523.784 363.284 523.651 363.821 523.645 364.406V366.222C523.645 366.983 523.784 367.636 524.062 368.182C524.341 368.722 524.73 369.136 525.23 369.426C525.73 369.71 526.315 369.852 526.986 369.852C527.435 369.852 527.841 369.79 528.205 369.665C528.568 369.534 528.884 369.344 529.151 369.094C529.418 368.844 529.619 368.534 529.756 368.165L532.636 368.489C532.455 369.25 532.108 369.915 531.597 370.483C531.091 371.045 530.443 371.483 529.653 371.795C528.864 372.102 527.96 372.256 526.943 372.256Z" fill="black"/>
<path d="M541.327 372V358.909H544.276V361.134H544.43C544.702 360.384 545.154 359.798 545.785 359.378C546.415 358.952 547.168 358.739 548.043 358.739C548.93 358.739 549.677 358.955 550.285 359.386C550.898 359.812 551.33 360.395 551.58 361.134H551.717C552.006 360.406 552.495 359.827 553.183 359.395C553.876 358.957 554.697 358.739 555.646 358.739C556.85 358.739 557.833 359.119 558.594 359.881C559.356 360.642 559.737 361.753 559.737 363.213V372H556.643V363.69C556.643 362.878 556.427 362.284 555.995 361.909C555.563 361.528 555.035 361.338 554.41 361.338C553.665 361.338 553.083 361.571 552.663 362.037C552.248 362.497 552.04 363.097 552.04 363.835V372H549.015V363.562C549.015 362.886 548.81 362.347 548.401 361.943C547.998 361.54 547.469 361.338 546.816 361.338C546.373 361.338 545.969 361.452 545.606 361.679C545.242 361.901 544.952 362.216 544.737 362.625C544.521 363.028 544.413 363.5 544.413 364.04V372H541.327Z" fill="black"/>
<path d="M568.577 372.256C567.298 372.256 566.19 371.974 565.253 371.412C564.315 370.849 563.588 370.062 563.071 369.051C562.56 368.04 562.304 366.858 562.304 365.506C562.304 364.153 562.56 362.969 563.071 361.952C563.588 360.935 564.315 360.145 565.253 359.582C566.19 359.02 567.298 358.739 568.577 358.739C569.855 358.739 570.963 359.02 571.901 359.582C572.838 360.145 573.562 360.935 574.074 361.952C574.591 362.969 574.849 364.153 574.849 365.506C574.849 366.858 574.591 368.04 574.074 369.051C573.562 370.062 572.838 370.849 571.901 371.412C570.963 371.974 569.855 372.256 568.577 372.256ZM568.594 369.784C569.287 369.784 569.867 369.594 570.332 369.213C570.798 368.827 571.145 368.31 571.372 367.662C571.605 367.014 571.722 366.293 571.722 365.497C571.722 364.696 571.605 363.972 571.372 363.324C571.145 362.67 570.798 362.151 570.332 361.764C569.867 361.378 569.287 361.185 568.594 361.185C567.884 361.185 567.293 361.378 566.821 361.764C566.355 362.151 566.006 362.67 565.773 363.324C565.545 363.972 565.432 364.696 565.432 365.497C565.432 366.293 565.545 367.014 565.773 367.662C566.006 368.31 566.355 368.827 566.821 369.213C567.293 369.594 567.884 369.784 568.594 369.784Z" fill="black"/>
<path d="M582.326 372.23C581.298 372.23 580.377 371.966 579.565 371.438C578.752 370.909 578.11 370.142 577.638 369.136C577.167 368.131 576.931 366.909 576.931 365.472C576.931 364.017 577.17 362.79 577.647 361.79C578.13 360.784 578.781 360.026 579.599 359.514C580.417 358.997 581.329 358.739 582.335 358.739C583.102 358.739 583.732 358.869 584.227 359.131C584.721 359.386 585.113 359.696 585.403 360.06C585.693 360.418 585.917 360.756 586.076 361.074H586.204V354.545H589.298V372H586.263V369.938H586.076C585.917 370.256 585.687 370.594 585.386 370.952C585.085 371.304 584.687 371.605 584.192 371.855C583.698 372.105 583.076 372.23 582.326 372.23ZM583.187 369.699C583.84 369.699 584.397 369.523 584.857 369.17C585.317 368.812 585.667 368.315 585.906 367.679C586.144 367.043 586.263 366.301 586.263 365.455C586.263 364.608 586.144 363.872 585.906 363.247C585.673 362.622 585.326 362.136 584.866 361.79C584.411 361.443 583.852 361.27 583.187 361.27C582.499 361.27 581.925 361.449 581.465 361.807C581.005 362.165 580.658 362.659 580.425 363.29C580.192 363.92 580.076 364.642 580.076 365.455C580.076 366.273 580.192 367.003 580.425 367.645C580.664 368.281 581.013 368.784 581.474 369.153C581.94 369.517 582.511 369.699 583.187 369.699Z" fill="black"/>
<path d="M598.381 372.256C597.068 372.256 595.935 371.983 594.98 371.438C594.031 370.886 593.301 370.108 592.79 369.102C592.278 368.091 592.023 366.901 592.023 365.531C592.023 364.185 592.278 363.003 592.79 361.986C593.307 360.963 594.028 360.168 594.955 359.599C595.881 359.026 596.969 358.739 598.219 358.739C599.026 358.739 599.787 358.869 600.503 359.131C601.224 359.386 601.861 359.784 602.412 360.324C602.969 360.864 603.406 361.551 603.724 362.386C604.043 363.216 604.202 364.205 604.202 365.352V366.298H593.472V364.219H601.244C601.239 363.628 601.111 363.102 600.861 362.642C600.611 362.176 600.261 361.81 599.812 361.543C599.369 361.276 598.852 361.142 598.261 361.142C597.631 361.142 597.077 361.295 596.599 361.602C596.122 361.903 595.75 362.301 595.483 362.795C595.222 363.284 595.088 363.821 595.082 364.406V366.222C595.082 366.983 595.222 367.636 595.5 368.182C595.778 368.722 596.168 369.136 596.668 369.426C597.168 369.71 597.753 369.852 598.423 369.852C598.872 369.852 599.278 369.79 599.642 369.665C600.006 369.534 600.321 369.344 600.588 369.094C600.855 368.844 601.057 368.534 601.193 368.165L604.074 368.489C603.892 369.25 603.545 369.915 603.034 370.483C602.528 371.045 601.881 371.483 601.091 371.795C600.301 372.102 599.398 372.256 598.381 372.256Z" fill="black"/>
<path d="M606.812 372V358.909H609.803V361.091H609.94C610.178 360.335 610.587 359.753 611.167 359.344C611.752 358.929 612.42 358.722 613.17 358.722C613.34 358.722 613.531 358.73 613.741 358.747C613.957 358.759 614.136 358.778 614.278 358.807V361.645C614.147 361.599 613.94 361.56 613.656 361.526C613.377 361.486 613.107 361.466 612.846 361.466C612.283 361.466 611.778 361.588 611.329 361.832C610.886 362.071 610.536 362.403 610.281 362.83C610.025 363.256 609.897 363.747 609.897 364.304V372H606.812Z" fill="black"/>
<path d="M619.413 364.33V372H616.327V358.909H619.276V361.134H619.43C619.731 360.401 620.211 359.818 620.87 359.386C621.535 358.955 622.356 358.739 623.333 358.739C624.236 358.739 625.023 358.932 625.694 359.318C626.37 359.705 626.893 360.264 627.262 360.997C627.637 361.73 627.822 362.619 627.816 363.665V372H624.731V364.142C624.731 363.267 624.504 362.582 624.049 362.088C623.6 361.594 622.978 361.347 622.183 361.347C621.643 361.347 621.163 361.466 620.742 361.705C620.327 361.938 620.001 362.276 619.762 362.719C619.529 363.162 619.413 363.699 619.413 364.33Z" fill="black"/>
<path d="M637.042 372V354.545H643.587C644.928 354.545 646.053 354.778 646.962 355.244C647.877 355.71 648.568 356.364 649.033 357.205C649.505 358.04 649.741 359.014 649.741 360.128C649.741 361.247 649.502 362.219 649.025 363.043C648.553 363.861 647.857 364.494 646.937 364.943C646.016 365.386 644.886 365.608 643.545 365.608H638.883V362.983H643.119C643.903 362.983 644.545 362.875 645.045 362.659C645.545 362.438 645.914 362.116 646.153 361.696C646.397 361.27 646.519 360.747 646.519 360.128C646.519 359.509 646.397 358.98 646.153 358.543C645.908 358.099 645.536 357.764 645.036 357.537C644.536 357.304 643.891 357.188 643.102 357.188H640.204V372H637.042ZM646.059 364.091L650.38 372H646.852L642.607 364.091H646.059Z" fill="black"/>
<path d="M656.282 372.264C655.452 372.264 654.705 372.116 654.04 371.821C653.381 371.52 652.859 371.077 652.472 370.491C652.092 369.906 651.901 369.185 651.901 368.327C651.901 367.588 652.038 366.977 652.31 366.494C652.583 366.011 652.955 365.625 653.427 365.335C653.898 365.045 654.43 364.827 655.021 364.679C655.617 364.526 656.234 364.415 656.87 364.347C657.637 364.267 658.259 364.196 658.737 364.134C659.214 364.065 659.56 363.963 659.776 363.827C659.998 363.685 660.109 363.466 660.109 363.17V363.119C660.109 362.477 659.918 361.98 659.538 361.628C659.157 361.276 658.609 361.099 657.893 361.099C657.137 361.099 656.538 361.264 656.094 361.594C655.657 361.923 655.361 362.312 655.208 362.761L652.327 362.352C652.555 361.557 652.93 360.892 653.452 360.358C653.975 359.818 654.614 359.415 655.37 359.148C656.126 358.875 656.961 358.739 657.876 358.739C658.506 358.739 659.134 358.812 659.759 358.96C660.384 359.108 660.955 359.352 661.472 359.693C661.989 360.028 662.404 360.486 662.717 361.065C663.035 361.645 663.194 362.369 663.194 363.239V372H660.228V370.202H660.126C659.938 370.565 659.674 370.906 659.333 371.224C658.998 371.537 658.575 371.79 658.063 371.983C657.558 372.17 656.964 372.264 656.282 372.264ZM657.083 369.997C657.702 369.997 658.239 369.875 658.694 369.631C659.148 369.381 659.498 369.051 659.742 368.642C659.992 368.233 660.117 367.787 660.117 367.304V365.761C660.021 365.841 659.856 365.915 659.623 365.983C659.396 366.051 659.14 366.111 658.856 366.162C658.572 366.213 658.29 366.259 658.012 366.298C657.734 366.338 657.492 366.372 657.288 366.401C656.827 366.463 656.415 366.565 656.052 366.707C655.688 366.849 655.401 367.048 655.191 367.304C654.981 367.554 654.876 367.878 654.876 368.276C654.876 368.844 655.083 369.273 655.498 369.562C655.913 369.852 656.441 369.997 657.083 369.997Z" fill="black"/>
<path d="M666.433 372V354.545H669.518V361.074H669.646C669.805 360.756 670.029 360.418 670.319 360.06C670.609 359.696 671.001 359.386 671.495 359.131C671.989 358.869 672.62 358.739 673.387 358.739C674.398 358.739 675.31 358.997 676.123 359.514C676.941 360.026 677.589 360.784 678.066 361.79C678.549 362.79 678.79 364.017 678.79 365.472C678.79 366.909 678.555 368.131 678.083 369.136C677.611 370.142 676.969 370.909 676.157 371.438C675.344 371.966 674.424 372.23 673.396 372.23C672.646 372.23 672.023 372.105 671.529 371.855C671.035 371.605 670.637 371.304 670.336 370.952C670.04 370.594 669.81 370.256 669.646 369.938H669.467V372H666.433ZM669.458 365.455C669.458 366.301 669.577 367.043 669.816 367.679C670.06 368.315 670.41 368.812 670.864 369.17C671.325 369.523 671.881 369.699 672.535 369.699C673.217 369.699 673.788 369.517 674.248 369.153C674.708 368.784 675.055 368.281 675.288 367.645C675.526 367.003 675.646 366.273 675.646 365.455C675.646 364.642 675.529 363.92 675.296 363.29C675.063 362.659 674.717 362.165 674.256 361.807C673.796 361.449 673.222 361.27 672.535 361.27C671.876 361.27 671.316 361.443 670.856 361.79C670.396 362.136 670.046 362.622 669.808 363.247C669.575 363.872 669.458 364.608 669.458 365.455Z" fill="black"/>
<path d="M681.55 372V354.545H684.635V361.074H684.763C684.922 360.756 685.146 360.418 685.436 360.06C685.726 359.696 686.118 359.386 686.612 359.131C687.107 358.869 687.737 358.739 688.504 358.739C689.516 358.739 690.428 358.997 691.24 359.514C692.058 360.026 692.706 360.784 693.183 361.79C693.666 362.79 693.908 364.017 693.908 365.472C693.908 366.909 693.672 368.131 693.2 369.136C692.729 370.142 692.087 370.909 691.274 371.438C690.462 371.966 689.541 372.23 688.513 372.23C687.763 372.23 687.141 372.105 686.646 371.855C686.152 371.605 685.754 371.304 685.453 370.952C685.158 370.594 684.928 370.256 684.763 369.938H684.584V372H681.55ZM684.575 365.455C684.575 366.301 684.695 367.043 684.933 367.679C685.178 368.315 685.527 368.812 685.982 369.17C686.442 369.523 686.999 369.699 687.652 369.699C688.334 369.699 688.905 369.517 689.365 369.153C689.825 368.784 690.172 368.281 690.405 367.645C690.643 367.003 690.763 366.273 690.763 365.455C690.763 364.642 690.646 363.92 690.413 363.29C690.18 362.659 689.834 362.165 689.374 361.807C688.913 361.449 688.339 361.27 687.652 361.27C686.993 361.27 686.433 361.443 685.973 361.79C685.513 362.136 685.163 362.622 684.925 363.247C684.692 363.872 684.575 364.608 684.575 365.455Z" fill="black"/>
<path d="M696.531 372V358.909H699.616V372H696.531ZM698.082 357.051C697.593 357.051 697.173 356.889 696.82 356.565C696.468 356.236 696.292 355.841 696.292 355.381C696.292 354.915 696.468 354.52 696.82 354.196C697.173 353.866 697.593 353.702 698.082 353.702C698.576 353.702 698.996 353.866 699.343 354.196C699.695 354.52 699.871 354.915 699.871 355.381C699.871 355.841 699.695 356.236 699.343 356.565C698.996 356.889 698.576 357.051 698.082 357.051Z" fill="black"/>
<path d="M709.325 358.909V361.295H701.8V358.909H709.325ZM703.658 355.773H706.743V368.062C706.743 368.477 706.805 368.795 706.93 369.017C707.061 369.233 707.232 369.381 707.442 369.46C707.652 369.54 707.885 369.58 708.141 369.58C708.334 369.58 708.51 369.565 708.669 369.537C708.834 369.509 708.959 369.483 709.044 369.46L709.564 371.872C709.399 371.929 709.163 371.991 708.857 372.06C708.555 372.128 708.186 372.168 707.749 372.179C706.976 372.202 706.28 372.085 705.661 371.83C705.041 371.568 704.55 371.165 704.186 370.619C703.828 370.074 703.652 369.392 703.658 368.574V355.773Z" fill="black"/>
<path d="M712.323 354.545H716.192L721.374 367.193H721.579L726.761 354.545H730.63V372H727.596V360.009H727.434L722.61 371.949H720.343L715.519 359.983H715.357V372H712.323V354.545Z" fill="black"/>
<path d="M740.576 366.136H743.44L745.136 368.335L746.346 369.767L749.252 373.5H746.184L744.207 370.994L743.363 369.801L740.576 366.136ZM749.67 363.273C749.67 365.153 749.317 366.764 748.613 368.105C747.914 369.44 746.959 370.463 745.749 371.173C744.545 371.884 743.178 372.239 741.65 372.239C740.121 372.239 738.752 371.884 737.542 371.173C736.337 370.457 735.383 369.432 734.678 368.097C733.979 366.756 733.63 365.148 733.63 363.273C733.63 361.392 733.979 359.784 734.678 358.449C735.383 357.108 736.337 356.082 737.542 355.372C738.752 354.662 740.121 354.307 741.65 354.307C743.178 354.307 744.545 354.662 745.749 355.372C746.959 356.082 747.914 357.108 748.613 358.449C749.317 359.784 749.67 361.392 749.67 363.273ZM746.491 363.273C746.491 361.949 746.283 360.832 745.869 359.923C745.459 359.009 744.891 358.318 744.164 357.852C743.437 357.381 742.599 357.145 741.65 357.145C740.701 357.145 739.863 357.381 739.136 357.852C738.408 358.318 737.837 359.009 737.423 359.923C737.013 360.832 736.809 361.949 736.809 363.273C736.809 364.597 737.013 365.716 737.423 366.631C737.837 367.54 738.408 368.23 739.136 368.702C739.863 369.168 740.701 369.401 741.65 369.401C742.599 369.401 743.437 369.168 744.164 368.702C744.891 368.23 745.459 367.54 745.869 366.631C746.283 365.716 746.491 364.597 746.491 363.273Z" fill="black"/>
<path d="M758.499 372V358.909H761.448V361.134H761.602C761.874 360.384 762.326 359.798 762.957 359.378C763.587 358.952 764.34 358.739 765.215 358.739C766.102 358.739 766.849 358.955 767.457 359.386C768.07 359.812 768.502 360.395 768.752 361.134H768.888C769.178 360.406 769.667 359.827 770.354 359.395C771.048 358.957 771.869 358.739 772.817 358.739C774.022 358.739 775.005 359.119 775.766 359.881C776.528 360.642 776.908 361.753 776.908 363.213V372H773.815V363.69C773.815 362.878 773.599 362.284 773.167 361.909C772.735 361.528 772.207 361.338 771.582 361.338C770.837 361.338 770.255 361.571 769.835 362.037C769.42 362.497 769.212 363.097 769.212 363.835V372H766.187V363.562C766.187 362.886 765.982 362.347 765.573 361.943C765.17 361.54 764.641 361.338 763.988 361.338C763.545 361.338 763.141 361.452 762.778 361.679C762.414 361.901 762.124 362.216 761.908 362.625C761.693 363.028 761.585 363.5 761.585 364.04V372H758.499Z" fill="black"/>
<path d="M783.805 372.264C782.976 372.264 782.229 372.116 781.564 371.821C780.905 371.52 780.382 371.077 779.996 370.491C779.615 369.906 779.425 369.185 779.425 368.327C779.425 367.588 779.561 366.977 779.834 366.494C780.107 366.011 780.479 365.625 780.95 365.335C781.422 365.045 781.953 364.827 782.544 364.679C783.141 364.526 783.757 364.415 784.393 364.347C785.161 364.267 785.783 364.196 786.26 364.134C786.737 364.065 787.084 363.963 787.3 363.827C787.521 363.685 787.632 363.466 787.632 363.17V363.119C787.632 362.477 787.442 361.98 787.061 361.628C786.68 361.276 786.132 361.099 785.416 361.099C784.661 361.099 784.061 361.264 783.618 361.594C783.18 361.923 782.885 362.312 782.732 362.761L779.851 362.352C780.078 361.557 780.453 360.892 780.976 360.358C781.499 359.818 782.138 359.415 782.893 359.148C783.649 358.875 784.484 358.739 785.399 358.739C786.03 358.739 786.658 358.812 787.283 358.96C787.908 359.108 788.479 359.352 788.996 359.693C789.513 360.028 789.928 360.486 790.24 361.065C790.558 361.645 790.717 362.369 790.717 363.239V372H787.751V370.202H787.649C787.462 370.565 787.197 370.906 786.857 371.224C786.521 371.537 786.098 371.79 785.587 371.983C785.081 372.17 784.487 372.264 783.805 372.264ZM784.607 369.997C785.226 369.997 785.763 369.875 786.217 369.631C786.672 369.381 787.021 369.051 787.266 368.642C787.516 368.233 787.641 367.787 787.641 367.304V365.761C787.544 365.841 787.379 365.915 787.146 365.983C786.919 366.051 786.663 366.111 786.379 366.162C786.095 366.213 785.814 366.259 785.536 366.298C785.257 366.338 785.016 366.372 784.811 366.401C784.351 366.463 783.939 366.565 783.575 366.707C783.212 366.849 782.925 367.048 782.714 367.304C782.504 367.554 782.399 367.878 782.399 368.276C782.399 368.844 782.607 369.273 783.021 369.562C783.436 369.852 783.964 369.997 784.607 369.997Z" fill="black"/>
<path d="M796.905 364.33V372H793.82V358.909H796.768V361.134H796.922C797.223 360.401 797.703 359.818 798.362 359.386C799.027 358.955 799.848 358.739 800.825 358.739C801.729 358.739 802.516 358.932 803.186 359.318C803.862 359.705 804.385 360.264 804.754 360.997C805.129 361.73 805.314 362.619 805.308 363.665V372H802.223V364.142C802.223 363.267 801.996 362.582 801.541 362.088C801.092 361.594 800.47 361.347 799.675 361.347C799.135 361.347 798.655 361.466 798.234 361.705C797.82 361.938 797.493 362.276 797.254 362.719C797.021 363.162 796.905 363.699 796.905 364.33Z" fill="black"/>
<path d="M812.212 372.264C811.382 372.264 810.635 372.116 809.97 371.821C809.311 371.52 808.788 371.077 808.402 370.491C808.021 369.906 807.831 369.185 807.831 368.327C807.831 367.588 807.967 366.977 808.24 366.494C808.513 366.011 808.885 365.625 809.357 365.335C809.828 365.045 810.359 364.827 810.95 364.679C811.547 364.526 812.163 364.415 812.8 364.347C813.567 364.267 814.189 364.196 814.666 364.134C815.143 364.065 815.49 363.963 815.706 363.827C815.928 363.685 816.038 363.466 816.038 363.17V363.119C816.038 362.477 815.848 361.98 815.467 361.628C815.087 361.276 814.538 361.099 813.822 361.099C813.067 361.099 812.467 361.264 812.024 361.594C811.587 361.923 811.291 362.312 811.138 362.761L808.257 362.352C808.484 361.557 808.859 360.892 809.382 360.358C809.905 359.818 810.544 359.415 811.3 359.148C812.055 358.875 812.891 358.739 813.805 358.739C814.436 358.739 815.064 358.812 815.689 358.96C816.314 359.108 816.885 359.352 817.402 359.693C817.919 360.028 818.334 360.486 818.646 361.065C818.964 361.645 819.124 362.369 819.124 363.239V372H816.158V370.202H816.055C815.868 370.565 815.604 370.906 815.263 371.224C814.928 371.537 814.504 371.79 813.993 371.983C813.487 372.17 812.893 372.264 812.212 372.264ZM813.013 369.997C813.632 369.997 814.169 369.875 814.624 369.631C815.078 369.381 815.428 369.051 815.672 368.642C815.922 368.233 816.047 367.787 816.047 367.304V365.761C815.95 365.841 815.786 365.915 815.553 365.983C815.325 366.051 815.07 366.111 814.786 366.162C814.501 366.213 814.22 366.259 813.942 366.298C813.663 366.338 813.422 366.372 813.217 366.401C812.757 366.463 812.345 366.565 811.982 366.707C811.618 366.849 811.331 367.048 811.121 367.304C810.911 367.554 810.805 367.878 810.805 368.276C810.805 368.844 811.013 369.273 811.428 369.562C811.842 369.852 812.371 369.997 813.013 369.997Z" fill="black"/>
<path d="M827.919 377.182C826.811 377.182 825.859 377.031 825.064 376.73C824.268 376.435 823.629 376.037 823.146 375.537C822.663 375.037 822.328 374.483 822.141 373.875L824.919 373.202C825.044 373.457 825.226 373.71 825.464 373.96C825.703 374.216 826.024 374.426 826.428 374.591C826.837 374.761 827.351 374.847 827.97 374.847C828.845 374.847 829.57 374.634 830.143 374.207C830.717 373.787 831.004 373.094 831.004 372.128V369.648H830.851C830.692 369.966 830.459 370.293 830.152 370.628C829.851 370.963 829.45 371.244 828.95 371.472C828.456 371.699 827.834 371.812 827.084 371.812C826.078 371.812 825.166 371.577 824.348 371.105C823.536 370.628 822.888 369.918 822.405 368.974C821.928 368.026 821.689 366.838 821.689 365.412C821.689 363.974 821.928 362.761 822.405 361.773C822.888 360.778 823.538 360.026 824.357 359.514C825.175 358.997 826.087 358.739 827.092 358.739C827.859 358.739 828.49 358.869 828.984 359.131C829.484 359.386 829.882 359.696 830.178 360.06C830.473 360.418 830.697 360.756 830.851 361.074H831.021V358.909H834.064V372.213C834.064 373.332 833.797 374.259 833.263 374.991C832.729 375.724 831.999 376.273 831.072 376.636C830.146 377 829.095 377.182 827.919 377.182ZM827.945 369.392C828.598 369.392 829.155 369.233 829.615 368.915C830.075 368.597 830.425 368.139 830.663 367.543C830.902 366.946 831.021 366.23 831.021 365.395C831.021 364.571 830.902 363.849 830.663 363.23C830.43 362.611 830.084 362.131 829.624 361.79C829.169 361.443 828.609 361.27 827.945 361.27C827.257 361.27 826.683 361.449 826.223 361.807C825.763 362.165 825.416 362.656 825.183 363.281C824.95 363.901 824.834 364.605 824.834 365.395C824.834 366.196 824.95 366.898 825.183 367.5C825.422 368.097 825.771 368.562 826.232 368.898C826.697 369.227 827.268 369.392 827.945 369.392Z" fill="black"/>
<path d="M843.021 372.256C841.709 372.256 840.575 371.983 839.621 371.438C838.672 370.886 837.942 370.108 837.43 369.102C836.919 368.091 836.663 366.901 836.663 365.531C836.663 364.185 836.919 363.003 837.43 361.986C837.947 360.963 838.669 360.168 839.595 359.599C840.521 359.026 841.609 358.739 842.859 358.739C843.666 358.739 844.428 358.869 845.143 359.131C845.865 359.386 846.501 359.784 847.053 360.324C847.609 360.864 848.047 361.551 848.365 362.386C848.683 363.216 848.842 364.205 848.842 365.352V366.298H838.112V364.219H845.885C845.879 363.628 845.751 363.102 845.501 362.642C845.251 362.176 844.902 361.81 844.453 361.543C844.01 361.276 843.493 361.142 842.902 361.142C842.271 361.142 841.717 361.295 841.24 361.602C840.763 361.903 840.391 362.301 840.124 362.795C839.862 363.284 839.729 363.821 839.723 364.406V366.222C839.723 366.983 839.862 367.636 840.141 368.182C840.419 368.722 840.808 369.136 841.308 369.426C841.808 369.71 842.393 369.852 843.064 369.852C843.513 369.852 843.919 369.79 844.283 369.665C844.646 369.534 844.962 369.344 845.229 369.094C845.496 368.844 845.697 368.534 845.834 368.165L848.714 368.489C848.533 369.25 848.186 369.915 847.675 370.483C847.169 371.045 846.521 371.483 845.732 371.795C844.942 372.102 844.038 372.256 843.021 372.256Z" fill="black"/>
<path d="M851.452 372V358.909H854.401V361.134H854.555C854.827 360.384 855.279 359.798 855.91 359.378C856.54 358.952 857.293 358.739 858.168 358.739C859.055 358.739 859.802 358.955 860.41 359.386C861.023 359.812 861.455 360.395 861.705 361.134H861.842C862.131 360.406 862.62 359.827 863.308 359.395C864.001 358.957 864.822 358.739 865.771 358.739C866.975 358.739 867.958 359.119 868.719 359.881C869.481 360.642 869.862 361.753 869.862 363.213V372H866.768V363.69C866.768 362.878 866.552 362.284 866.12 361.909C865.688 361.528 865.16 361.338 864.535 361.338C863.79 361.338 863.208 361.571 862.788 362.037C862.373 362.497 862.165 363.097 862.165 363.835V372H859.14V363.562C859.14 362.886 858.935 362.347 858.526 361.943C858.123 361.54 857.594 361.338 856.941 361.338C856.498 361.338 856.094 361.452 855.731 361.679C855.367 361.901 855.077 362.216 854.862 362.625C854.646 363.028 854.538 363.5 854.538 364.04V372H851.452Z" fill="black"/>
<path d="M878.787 372.256C877.474 372.256 876.341 371.983 875.386 371.438C874.438 370.886 873.707 370.108 873.196 369.102C872.685 368.091 872.429 366.901 872.429 365.531C872.429 364.185 872.685 363.003 873.196 361.986C873.713 360.963 874.435 360.168 875.361 359.599C876.287 359.026 877.375 358.739 878.625 358.739C879.432 358.739 880.193 358.869 880.909 359.131C881.631 359.386 882.267 359.784 882.818 360.324C883.375 360.864 883.812 361.551 884.131 362.386C884.449 363.216 884.608 364.205 884.608 365.352V366.298H873.878V364.219H881.651C881.645 363.628 881.517 363.102 881.267 362.642C881.017 362.176 880.668 361.81 880.219 361.543C879.776 361.276 879.258 361.142 878.668 361.142C878.037 361.142 877.483 361.295 877.006 361.602C876.528 361.903 876.156 362.301 875.889 362.795C875.628 363.284 875.494 363.821 875.489 364.406V366.222C875.489 366.983 875.628 367.636 875.906 368.182C876.185 368.722 876.574 369.136 877.074 369.426C877.574 369.71 878.159 369.852 878.83 369.852C879.278 369.852 879.685 369.79 880.048 369.665C880.412 369.534 880.727 369.344 880.994 369.094C881.261 368.844 881.463 368.534 881.599 368.165L884.48 368.489C884.298 369.25 883.952 369.915 883.44 370.483C882.935 371.045 882.287 371.483 881.497 371.795C880.707 372.102 879.804 372.256 878.787 372.256Z" fill="black"/>
<path d="M890.303 364.33V372H887.218V358.909H890.167V361.134H890.32C890.621 360.401 891.102 359.818 891.761 359.386C892.425 358.955 893.246 358.739 894.224 358.739C895.127 358.739 895.914 358.932 896.585 359.318C897.261 359.705 897.783 360.264 898.153 360.997C898.528 361.73 898.712 362.619 898.707 363.665V372H895.621V364.142C895.621 363.267 895.394 362.582 894.94 362.088C894.491 361.594 893.869 361.347 893.073 361.347C892.533 361.347 892.053 361.466 891.633 361.705C891.218 361.938 890.891 362.276 890.653 362.719C890.42 363.162 890.303 363.699 890.303 364.33Z" fill="black"/>
<path d="M908.38 358.909V361.295H900.854V358.909H908.38ZM902.712 355.773H905.798V368.062C905.798 368.477 905.86 368.795 905.985 369.017C906.116 369.233 906.286 369.381 906.496 369.46C906.707 369.54 906.94 369.58 907.195 369.58C907.388 369.58 907.565 369.565 907.724 369.537C907.888 369.509 908.013 369.483 908.099 369.46L908.619 371.872C908.454 371.929 908.218 371.991 907.911 372.06C907.61 372.128 907.241 372.168 906.803 372.179C906.031 372.202 905.335 372.085 904.715 371.83C904.096 371.568 903.604 371.165 903.241 370.619C902.883 370.074 902.707 369.392 902.712 368.574V355.773Z" fill="black"/>
<path d="M916.913 372V358.909H919.999V372H916.913ZM918.464 357.051C917.976 357.051 917.555 356.889 917.203 356.565C916.851 356.236 916.675 355.841 916.675 355.381C916.675 354.915 916.851 354.52 917.203 354.196C917.555 353.866 917.976 353.702 918.464 353.702C918.959 353.702 919.379 353.866 919.726 354.196C920.078 354.52 920.254 354.915 920.254 355.381C920.254 355.841 920.078 356.236 919.726 356.565C919.379 356.889 918.959 357.051 918.464 357.051Z" fill="black"/>
<path d="M926.256 364.33V372H923.171V358.909H926.12V361.134H926.273C926.575 360.401 927.055 359.818 927.714 359.386C928.379 358.955 929.2 358.739 930.177 358.739C931.08 358.739 931.867 358.932 932.538 359.318C933.214 359.705 933.737 360.264 934.106 360.997C934.481 361.73 934.665 362.619 934.66 363.665V372H931.575V364.142C931.575 363.267 931.347 362.582 930.893 362.088C930.444 361.594 929.822 361.347 929.026 361.347C928.487 361.347 928.006 361.466 927.586 361.705C927.171 361.938 926.844 362.276 926.606 362.719C926.373 363.162 926.256 363.699 926.256 364.33Z" fill="black"/>
<path d="M944.333 358.909V361.295H936.808V358.909H944.333ZM938.665 355.773H941.751V368.062C941.751 368.477 941.813 368.795 941.938 369.017C942.069 369.233 942.239 369.381 942.45 369.46C942.66 369.54 942.893 369.58 943.148 369.58C943.342 369.58 943.518 369.565 943.677 369.537C943.842 369.509 943.967 369.483 944.052 369.46L944.572 371.872C944.407 371.929 944.171 371.991 943.864 372.06C943.563 372.128 943.194 372.168 942.756 372.179C941.984 372.202 941.288 372.085 940.668 371.83C940.049 371.568 939.558 371.165 939.194 370.619C938.836 370.074 938.66 369.392 938.665 368.574V355.773Z" fill="black"/>
<path d="M952.568 372.256C951.256 372.256 950.122 371.983 949.168 371.438C948.219 370.886 947.489 370.108 946.977 369.102C946.466 368.091 946.21 366.901 946.21 365.531C946.21 364.185 946.466 363.003 946.977 361.986C947.494 360.963 948.216 360.168 949.142 359.599C950.068 359.026 951.156 358.739 952.406 358.739C953.213 358.739 953.974 358.869 954.69 359.131C955.412 359.386 956.048 359.784 956.599 360.324C957.156 360.864 957.594 361.551 957.912 362.386C958.23 363.216 958.389 364.205 958.389 365.352V366.298H947.659V364.219H955.432C955.426 363.628 955.298 363.102 955.048 362.642C954.798 362.176 954.449 361.81 954 361.543C953.557 361.276 953.04 361.142 952.449 361.142C951.818 361.142 951.264 361.295 950.787 361.602C950.31 361.903 949.938 362.301 949.67 362.795C949.409 363.284 949.276 363.821 949.27 364.406V366.222C949.27 366.983 949.409 367.636 949.688 368.182C949.966 368.722 950.355 369.136 950.855 369.426C951.355 369.71 951.94 369.852 952.611 369.852C953.06 369.852 953.466 369.79 953.83 369.665C954.193 369.534 954.509 369.344 954.776 369.094C955.043 368.844 955.244 368.534 955.381 368.165L958.261 368.489C958.08 369.25 957.733 369.915 957.222 370.483C956.716 371.045 956.068 371.483 955.278 371.795C954.489 372.102 953.585 372.256 952.568 372.256Z" fill="black"/>
<path d="M960.999 372V358.909H963.991V361.091H964.127C964.366 360.335 964.775 359.753 965.354 359.344C965.94 358.929 966.607 358.722 967.357 358.722C967.528 358.722 967.718 358.73 967.928 358.747C968.144 358.759 968.323 358.778 968.465 358.807V361.645C968.335 361.599 968.127 361.56 967.843 361.526C967.565 361.486 967.295 361.466 967.033 361.466C966.471 361.466 965.965 361.588 965.516 361.832C965.073 362.071 964.724 362.403 964.468 362.83C964.212 363.256 964.085 363.747 964.085 364.304V372H960.999Z" fill="black"/>
<path d="M977.849 358.909V361.295H970.11V358.909H977.849ZM972.045 372V357.673C972.045 356.793 972.227 356.06 972.59 355.474C972.96 354.889 973.454 354.452 974.073 354.162C974.693 353.872 975.38 353.727 976.136 353.727C976.67 353.727 977.144 353.77 977.559 353.855C977.974 353.94 978.281 354.017 978.479 354.085L977.866 356.472C977.735 356.432 977.57 356.392 977.371 356.352C977.173 356.307 976.951 356.284 976.707 356.284C976.133 356.284 975.727 356.423 975.488 356.702C975.255 356.974 975.138 357.366 975.138 357.878V372H972.045Z" fill="black"/>
<path d="M983.587 372.264C982.757 372.264 982.01 372.116 981.345 371.821C980.686 371.52 980.163 371.077 979.777 370.491C979.396 369.906 979.206 369.185 979.206 368.327C979.206 367.588 979.342 366.977 979.615 366.494C979.888 366.011 980.26 365.625 980.732 365.335C981.203 365.045 981.734 364.827 982.325 364.679C982.922 364.526 983.538 364.415 984.175 364.347C984.942 364.267 985.564 364.196 986.041 364.134C986.518 364.065 986.865 363.963 987.081 363.827C987.303 363.685 987.413 363.466 987.413 363.17V363.119C987.413 362.477 987.223 361.98 986.842 361.628C986.462 361.276 985.913 361.099 985.197 361.099C984.442 361.099 983.842 361.264 983.399 361.594C982.962 361.923 982.666 362.312 982.513 362.761L979.632 362.352C979.859 361.557 980.234 360.892 980.757 360.358C981.28 359.818 981.919 359.415 982.675 359.148C983.43 358.875 984.266 358.739 985.18 358.739C985.811 358.739 986.439 358.812 987.064 358.96C987.689 359.108 988.26 359.352 988.777 359.693C989.294 360.028 989.709 360.486 990.021 361.065C990.339 361.645 990.499 362.369 990.499 363.239V372H987.533V370.202H987.43C987.243 370.565 986.979 370.906 986.638 371.224C986.303 371.537 985.879 371.79 985.368 371.983C984.862 372.17 984.268 372.264 983.587 372.264ZM984.388 369.997C985.007 369.997 985.544 369.875 985.999 369.631C986.453 369.381 986.803 369.051 987.047 368.642C987.297 368.233 987.422 367.787 987.422 367.304V365.761C987.325 365.841 987.161 365.915 986.928 365.983C986.7 366.051 986.445 366.111 986.161 366.162C985.876 366.213 985.595 366.259 985.317 366.298C985.038 366.338 984.797 366.372 984.592 366.401C984.132 366.463 983.72 366.565 983.357 366.707C982.993 366.849 982.706 367.048 982.496 367.304C982.286 367.554 982.18 367.878 982.18 368.276C982.18 368.844 982.388 369.273 982.803 369.562C983.217 369.852 983.746 369.997 984.388 369.997Z" fill="black"/>
<path d="M999.311 372.256C998.004 372.256 996.882 371.969 995.945 371.395C995.013 370.821 994.294 370.028 993.788 369.017C993.288 368 993.038 366.83 993.038 365.506C993.038 364.176 993.294 363.003 993.805 361.986C994.317 360.963 995.038 360.168 995.97 359.599C996.908 359.026 998.016 358.739 999.294 358.739C1000.36 358.739 1001.3 358.935 1002.12 359.327C1002.94 359.713 1003.6 360.261 1004.08 360.972C1004.57 361.676 1004.85 362.5 1004.92 363.443H1001.97C1001.85 362.812 1001.57 362.287 1001.12 361.866C1000.67 361.44 1000.08 361.227 999.337 361.227C998.706 361.227 998.152 361.398 997.675 361.739C997.197 362.074 996.825 362.557 996.558 363.188C996.297 363.818 996.166 364.574 996.166 365.455C996.166 366.347 996.297 367.114 996.558 367.756C996.82 368.392 997.186 368.884 997.658 369.23C998.135 369.571 998.695 369.741 999.337 369.741C999.791 369.741 1000.2 369.656 1000.56 369.486C1000.92 369.31 1001.22 369.057 1001.47 368.727C1001.71 368.398 1001.88 367.997 1001.97 367.526H1004.92C1004.85 368.452 1004.57 369.273 1004.1 369.989C1003.63 370.699 1002.99 371.256 1002.17 371.659C1001.36 372.057 1000.41 372.256 999.311 372.256Z" fill="black"/>
<path d="M1013.25 372.256C1011.94 372.256 1010.8 371.983 1009.85 371.438C1008.9 370.886 1008.17 370.108 1007.66 369.102C1007.15 368.091 1006.89 366.901 1006.89 365.531C1006.89 364.185 1007.15 363.003 1007.66 361.986C1008.17 360.963 1008.9 360.168 1009.82 359.599C1010.75 359.026 1011.84 358.739 1013.09 358.739C1013.89 358.739 1014.65 358.869 1015.37 359.131C1016.09 359.386 1016.73 359.784 1017.28 360.324C1017.84 360.864 1018.27 361.551 1018.59 362.386C1018.91 363.216 1019.07 364.205 1019.07 365.352V366.298H1008.34V364.219H1016.11C1016.11 363.628 1015.98 363.102 1015.73 362.642C1015.48 362.176 1015.13 361.81 1014.68 361.543C1014.24 361.276 1013.72 361.142 1013.13 361.142C1012.5 361.142 1011.94 361.295 1011.47 361.602C1010.99 361.903 1010.62 362.301 1010.35 362.795C1010.09 363.284 1009.96 363.821 1009.95 364.406V366.222C1009.95 366.983 1010.09 367.636 1010.37 368.182C1010.65 368.722 1011.03 369.136 1011.53 369.426C1012.03 369.71 1012.62 369.852 1013.29 369.852C1013.74 369.852 1014.15 369.79 1014.51 369.665C1014.87 369.534 1015.19 369.344 1015.46 369.094C1015.72 368.844 1015.92 368.534 1016.06 368.165L1018.94 368.489C1018.76 369.25 1018.41 369.915 1017.9 370.483C1017.4 371.045 1016.75 371.483 1015.96 371.795C1015.17 372.102 1014.26 372.256 1013.25 372.256Z" fill="black"/>
<defs>
<linearGradient id="paint0_linear_20_12" x1="0" y1="315" x2="1200" y2="315" gradientUnits="userSpaceOnUse">
<stop stop-color="#EA580C"/>
<stop offset="1" stop-color="#DC2626"/>
</linearGradient>
</defs>
</svg>
