<svg width="280" height="280" viewBox="0 0 280 280" fill="none" xmlns="http://www.w3.org/2000/svg">
<path d="M0 25C0 11.1929 11.1929 0 25 0H255C268.807 0 280 11.1929 280 25V255C280 268.807 268.807 280 255 280H25C11.1929 280 0 268.807 0 255V25Z" fill="url(#paint0_linear_15_8)"/>
<path d="M71 151.86C71 140.814 79.9543 131.86 91 131.86H189C200.046 131.86 209 140.814 209 151.86V217.86C209 228.905 200.046 237.86 189 237.86H91C79.9543 237.86 71 228.905 71 217.86V151.86Z" fill="white"/>
<path d="M126 58.5C126 46.6259 135.626 37 147.5 37C159.374 37 169 46.6259 169 58.5V120H126V58.5Z" fill="white"/>
<path d="M71 76.3596C71 64.4855 80.6259 54.8596 92.5 54.8596C104.374 54.8596 114 64.4855 114 76.3596V156.86H71V76.3596Z" fill="white"/>
<path d="M126 184.5C126 172.626 135.626 163 147.5 163C159.374 163 169 172.626 169 184.5C169 196.374 159.374 206 147.5 206C135.626 206 126 196.374 126 184.5Z" fill="#E13A1C"/>
<defs>
<linearGradient id="paint0_linear_15_8" x1="0" y1="140" x2="280" y2="140" gradientUnits="userSpaceOnUse">
<stop stop-color="#EA580C"/>
<stop offset="1" stop-color="#DC2626"/>
</linearGradient>
</defs>
</svg>
