<svg width="200" height="200" viewBox="0 0 200 200" xmlns="http://www.w3.org/2000/svg">
  <defs>
    <linearGradient id="rabbitGradient" x1="0%" y1="0%" x2="100%" y2="100%">
      <stop offset="0%" style="stop-color:#EA580C;stop-opacity:1" />
      <stop offset="100%" style="stop-color:#DC2626;stop-opacity:1" />
    </linearGradient>
  </defs>
  
  <!-- Background circle -->
  <circle cx="100" cy="100" r="95" fill="#FFFFFF" stroke="#E5E7EB" stroke-width="2"/>
  
  <!-- Rabbit -->
  <g transform="translate(100, 100)">
    <!-- Rabbit ears -->
    <ellipse cx="-15" cy="-45" rx="8" ry="30" fill="url(#rabbitGradient)" transform="rotate(-10 -15 -45)"/>
    <ellipse cx="15" cy="-45" rx="8" ry="30" fill="url(#rabbitGradient)" transform="rotate(10 15 -45)"/>
    
    <!-- Inner ears -->
    <ellipse cx="-15" cy="-40" rx="4" ry="18" fill="#F3F4F6" transform="rotate(-10 -15 -40)"/>
    <ellipse cx="15" cy="-40" rx="4" ry="18" fill="#F3F4F6" transform="rotate(10 15 -40)"/>
    
    <!-- Rabbit head -->
    <ellipse cx="0" cy="-10" rx="25" ry="22" fill="url(#rabbitGradient)"/>
    
    <!-- Rabbit body -->
    <ellipse cx="0" cy="25" rx="22" ry="28" fill="url(#rabbitGradient)"/>
    
    <!-- Binoculars -->
    <g transform="translate(0, -15)">
      <!-- Binocular tubes -->
      <circle cx="-12" cy="0" r="10" fill="#374151" stroke="#1F2937" stroke-width="2"/>
      <circle cx="12" cy="0" r="10" fill="#374151" stroke="#1F2937" stroke-width="2"/>
      
      <!-- Binocular bridge -->
      <rect x="-6" y="-3" width="12" height="6" rx="3" fill="#374151"/>
      
      <!-- Lenses -->
      <circle cx="-12" cy="0" r="7" fill="#60A5FA" opacity="0.8"/>
      <circle cx="12" cy="0" r="7" fill="#60A5FA" opacity="0.8"/>
      
      <!-- Lens reflections -->
      <circle cx="-15" cy="-3" r="2" fill="#FFFFFF" opacity="0.7"/>
      <circle cx="9" cy="-3" r="2" fill="#FFFFFF" opacity="0.7"/>
    </g>
    
    <!-- Rabbit paws holding binoculars -->
    <ellipse cx="-20" cy="5" rx="6" ry="8" fill="url(#rabbitGradient)"/>
    <ellipse cx="20" cy="5" rx="6" ry="8" fill="url(#rabbitGradient)"/>
    
    <!-- Nose -->
    <ellipse cx="0" cy="-5" rx="2" ry="1.5" fill="#EC4899"/>
    
    <!-- Tail -->
    <circle cx="0" cy="50" r="8" fill="url(#rabbitGradient)"/>
  </g>
</svg>